<?xml version="1.0" encoding="UTF-8"?>
<svg xmlns="http://www.w3.org/2000/svg" xmlns:xlink="http://www.w3.org/1999/xlink" width="298.86" height="101.59" viewBox="10.16 120.94 298.86 101.59">
<path fill-rule="nonzero" fill="rgb(0%, 0%, 0%)" fill-opacity="1" d="M 99.589844 198.675781 L 102.300781 198.675781 L 102.300781 218.320312 L 99.589844 218.320312 Z M 99.589844 198.675781 "/>
<path fill-rule="nonzero" fill="rgb(0%, 0%, 0%)" fill-opacity="1" d="M 115.121094 218.320312 L 115.121094 209.140625 C 115.121094 207.21875 114.511719 205.554688 112.964844 205.554688 C 111.976562 205.554688 110.925781 206.167969 109.585938 207.449219 L 109.585938 218.320312 L 106.992188 218.320312 L 106.992188 203.429688 L 109.117188 203.429688 L 109.410156 205.265625 C 111.390625 203.601562 112.382812 203.195312 113.839844 203.195312 C 116.171875 203.195312 117.714844 205.117188 117.714844 208.410156 L 117.714844 218.320312 Z M 115.121094 218.320312 "/>
<path fill-rule="nonzero" fill="rgb(0%, 0%, 0%)" fill-opacity="1" d="M 122.4375 218.320312 L 122.4375 205.46875 L 120.222656 205.46875 L 120.222656 203.429688 L 122.4375 203.429688 L 122.4375 201.53125 C 122.4375 198.589844 123.71875 197.074219 126.488281 197.074219 C 127.246094 197.074219 127.828125 197.160156 128.410156 197.277344 L 128.207031 199.261719 C 127.855469 199.203125 127.246094 199.144531 126.835938 199.144531 C 125.46875 199.144531 125 199.960938 125 201.503906 L 125 203.429688 L 127.769531 203.429688 L 127.769531 205.46875 L 125 205.46875 L 125 218.320312 Z M 122.4375 218.320312 "/>
<path fill-rule="nonzero" fill="rgb(0%, 0%, 0%)" fill-opacity="1" d="M 135.988281 205.410156 C 133.394531 205.410156 132.519531 207.710938 132.519531 210.859375 C 132.519531 214.09375 133.394531 216.253906 135.960938 216.253906 C 138.554688 216.253906 139.425781 214.007812 139.425781 210.859375 C 139.425781 207.59375 138.554688 205.410156 135.988281 205.410156 M 135.929688 218.496094 L 135.84375 218.496094 C 131.820312 218.496094 129.898438 216.164062 129.898438 210.917969 C 129.898438 206.3125 131.820312 203.195312 136.019531 203.195312 L 136.105469 203.195312 C 140.128906 203.195312 142.050781 205.527344 142.050781 210.800781 C 142.050781 215.378906 140.128906 218.496094 135.929688 218.496094 "/>
<path fill-rule="nonzero" fill="rgb(0%, 0%, 0%)" fill-opacity="1" d="M 145.839844 218.320312 L 145.839844 203.429688 L 148.023438 203.429688 L 148.285156 205.4375 C 150.152344 203.429688 150.765625 203.195312 151.902344 203.195312 L 152.542969 203.195312 L 152.542969 205.816406 L 151.699219 205.816406 C 150.472656 205.816406 149.773438 206.3125 148.433594 207.652344 L 148.433594 218.320312 Z M 145.839844 218.320312 "/>
<path fill-rule="nonzero" fill="rgb(0%, 0%, 0%)" fill-opacity="1" d="M 171.542969 218.320312 L 171.542969 209.140625 C 171.542969 207.21875 170.960938 205.554688 169.445312 205.554688 C 168.484375 205.554688 167.40625 206.195312 166.035156 207.507812 C 166.09375 207.742188 166.09375 208.0625 166.09375 208.410156 L 166.09375 218.320312 L 163.558594 218.320312 L 163.558594 209.140625 C 163.558594 207.21875 162.976562 205.554688 161.429688 205.554688 C 160.496094 205.554688 159.449219 206.167969 158.109375 207.449219 L 158.109375 218.320312 L 155.515625 218.320312 L 155.515625 203.429688 L 157.640625 203.429688 L 157.933594 205.265625 C 159.914062 203.601562 160.90625 203.195312 162.332031 203.195312 C 163.878906 203.195312 164.988281 204.128906 165.597656 205.46875 C 167.929688 203.574219 168.863281 203.195312 170.320312 203.195312 C 172.621094 203.195312 174.136719 205.117188 174.136719 208.410156 L 174.136719 218.320312 Z M 171.542969 218.320312 "/>
<path fill-rule="nonzero" fill="rgb(0%, 0%, 0%)" fill-opacity="1" d="M 186.113281 211.617188 L 184.949219 211.617188 C 181.246094 211.617188 180.375 212.402344 180.375 213.863281 C 180.375 215.230469 181.21875 216.28125 182.414062 216.28125 C 183.609375 216.28125 184.570312 215.726562 186.113281 214.269531 Z M 186.582031 218.320312 L 186.289062 216.457031 C 184.425781 218.058594 183.433594 218.523438 181.683594 218.523438 C 179.410156 218.523438 177.722656 216.6875 177.722656 214.007812 C 177.722656 211.210938 179.90625 209.550781 185.152344 209.550781 L 186.113281 209.550781 L 186.113281 209.023438 C 186.113281 206.722656 185.792969 205.351562 183.257812 205.351562 C 181.859375 205.351562 180.433594 205.789062 178.859375 206.3125 L 178.363281 204.359375 C 180.140625 203.660156 181.917969 203.195312 183.578125 203.195312 C 187.132812 203.195312 188.707031 204.390625 188.707031 208.265625 L 188.707031 218.320312 Z M 186.582031 218.320312 "/>
<path fill-rule="nonzero" fill="rgb(0%, 0%, 0%)" fill-opacity="1" d="M 199.171875 218.085938 C 198.414062 218.320312 197.421875 218.496094 196.519531 218.496094 C 194.710938 218.496094 193.429688 217.765625 193.429688 214.96875 L 193.429688 205.46875 L 191.214844 205.46875 L 191.214844 203.425781 L 193.429688 203.425781 L 193.429688 199.054688 L 195.996094 198.707031 L 195.996094 203.425781 L 199.171875 203.425781 L 199.171875 205.46875 L 195.996094 205.46875 L 195.996094 214.503906 C 195.996094 215.84375 196.316406 216.25 197.480469 216.25 C 197.859375 216.25 198.382812 216.195312 198.96875 216.105469 Z M 199.171875 218.085938 "/>
<path fill-rule="nonzero" fill="rgb(0%, 0%, 0%)" fill-opacity="1" d="M 202.464844 203.429688 L 205.058594 203.429688 L 205.058594 218.320312 L 202.464844 218.320312 Z M 202.464844 197.308594 L 205.058594 197.308594 L 205.058594 200.28125 L 202.464844 200.28125 Z M 202.464844 197.308594 "/>
<path fill-rule="nonzero" fill="rgb(0%, 0%, 0%)" fill-opacity="1" d="M 216.859375 218.320312 L 212.167969 210.625 L 212.136719 210.625 L 212.136719 218.320312 L 209.546875 218.320312 L 209.546875 197.453125 L 212.136719 197.074219 L 212.136719 209.8125 L 212.167969 209.8125 L 216.25 203.429688 L 219.25 203.429688 L 214.675781 209.984375 L 220.039062 218.320312 Z M 216.859375 218.320312 "/>
<path fill-rule="nonzero" fill="rgb(0%, 0%, 0%)" fill-opacity="1" d="M 230.382812 207.421875 C 229.074219 206.195312 228.082031 205.554688 227.234375 205.554688 C 225.660156 205.554688 224.464844 207.566406 224.464844 210.890625 C 224.464844 214.125 225.429688 216.191406 227.058594 216.191406 C 227.964844 216.191406 229.042969 215.550781 230.382812 214.269531 Z M 230.847656 218.320312 L 230.558594 216.457031 C 228.605469 218.089844 227.554688 218.523438 226.300781 218.523438 C 223.59375 218.523438 221.871094 215.667969 221.871094 210.976562 C 221.871094 205.933594 224 203.195312 226.914062 203.195312 C 227.933594 203.195312 228.808594 203.574219 230.382812 204.972656 L 230.382812 197.453125 L 232.949219 197.074219 L 232.949219 218.320312 Z M 230.847656 218.320312 "/>
<path fill-rule="nonzero" fill="rgb(0%, 0%, 0%)" fill-opacity="1" d="M 237.492188 203.429688 L 240.085938 203.429688 L 240.085938 218.320312 L 237.492188 218.320312 Z M 237.492188 197.308594 L 240.085938 197.308594 L 240.085938 200.28125 L 237.492188 200.28125 Z M 237.492188 197.308594 "/>
<path fill-rule="nonzero" fill="rgb(0%, 0%, 0%)" fill-opacity="1" d="M 252.414062 209.34375 C 252.414062 207.1875 251.65625 205.351562 249.527344 205.351562 C 247.371094 205.351562 246.554688 207.507812 246.496094 209.546875 L 252.414062 209.546875 Z M 254.660156 217.417969 C 252.792969 218.175781 251.160156 218.496094 249.472656 218.496094 C 245.625 218.496094 243.875 216.339844 243.875 210.945312 C 243.875 205.789062 246.179688 203.195312 249.761719 203.195312 C 253.027344 203.195312 255.007812 205.613281 255.007812 209.636719 C 255.007812 210.191406 254.980469 211.0625 254.921875 211.617188 L 246.496094 211.617188 C 246.496094 214.910156 247.519531 216.28125 249.878906 216.28125 C 250.898438 216.28125 252.675781 215.988281 254.164062 215.550781 Z M 254.660156 217.417969 "/>
<path fill-rule="nonzero" fill="rgb(0%, 0%, 0%)" fill-opacity="1" d="M 267.015625 218.320312 L 267.015625 209.140625 C 267.015625 207.21875 266.402344 205.554688 264.859375 205.554688 C 263.867188 205.554688 262.820312 206.167969 261.476562 207.449219 L 261.476562 218.320312 L 258.882812 218.320312 L 258.882812 203.429688 L 261.011719 203.429688 L 261.304688 205.265625 C 263.285156 203.601562 264.277344 203.195312 265.734375 203.195312 C 268.066406 203.195312 269.609375 205.117188 269.609375 208.410156 L 269.609375 218.320312 Z M 267.015625 218.320312 "/>
<path fill-rule="nonzero" fill="rgb(0%, 0%, 0%)" fill-opacity="1" d="M 273.863281 215.464844 C 274.96875 216.078125 275.902344 216.339844 276.835938 216.339844 C 278.46875 216.339844 279.050781 215.523438 279.050781 214.472656 C 279.050781 211.53125 273.105469 211.761719 273.105469 207.160156 C 273.105469 204.828125 274.914062 203.195312 277.507812 203.195312 C 278.875 203.195312 280.128906 203.574219 281.207031 204.1875 L 280.421875 206.109375 C 279.574219 205.730469 278.613281 205.324219 277.621094 205.324219 C 276.195312 205.324219 275.671875 206.109375 275.671875 207.039062 C 275.671875 209.898438 281.671875 209.695312 281.671875 214.359375 C 281.671875 216.980469 279.835938 218.496094 277.011719 218.496094 C 275.40625 218.496094 274.242188 218.117188 273.015625 217.445312 Z M 273.863281 215.464844 "/>
<path fill-rule="nonzero" fill="rgb(0%, 0%, 0%)" fill-opacity="1" d="M 291.292969 218.085938 C 290.535156 218.320312 289.542969 218.496094 288.640625 218.496094 C 286.832031 218.496094 285.550781 217.765625 285.550781 214.96875 L 285.550781 205.46875 L 283.335938 205.46875 L 283.335938 203.425781 L 285.550781 203.425781 L 285.550781 199.054688 L 288.113281 198.707031 L 288.113281 203.425781 L 291.292969 203.425781 L 291.292969 205.46875 L 288.113281 205.46875 L 288.113281 214.503906 C 288.113281 215.84375 288.433594 216.25 289.601562 216.25 C 289.980469 216.25 290.503906 216.195312 291.085938 216.105469 Z M 291.292969 218.085938 "/>
<path fill-rule="nonzero" fill="rgb(0%, 0%, 0%)" fill-opacity="1" d="M 302.421875 209.34375 C 302.421875 207.1875 301.664062 205.351562 299.539062 205.351562 C 297.382812 205.351562 296.566406 207.507812 296.507812 209.546875 L 302.421875 209.546875 Z M 304.667969 217.417969 C 302.800781 218.175781 301.171875 218.496094 299.480469 218.496094 C 295.632812 218.496094 293.882812 216.339844 293.882812 210.945312 C 293.882812 205.789062 296.1875 203.195312 299.769531 203.195312 C 303.035156 203.195312 305.019531 205.613281 305.019531 209.636719 C 305.019531 210.191406 304.988281 211.0625 304.929688 211.617188 L 296.507812 211.617188 C 296.507812 214.910156 297.527344 216.28125 299.886719 216.28125 C 300.910156 216.28125 302.6875 215.988281 304.171875 215.550781 Z M 304.667969 217.417969 "/>
<path fill-rule="nonzero" fill="rgb(0%, 0%, 0%)" fill-opacity="1" d="M 100.101562 168.550781 C 102.421875 169.828125 104.402344 170.40625 106.085938 170.40625 C 108.464844 170.40625 109.34375 169.25 109.34375 167.683594 C 109.34375 163.203125 98.007812 163.902344 98.007812 154.195312 C 98.007812 149.027344 101.84375 145.421875 107.828125 145.421875 C 110.90625 145.421875 113.640625 146.175781 116.191406 147.632812 L 114.046875 152.980469 C 112.246094 152.105469 110.203125 151.351562 108.410156 151.351562 C 106.261719 151.351562 105.566406 152.511719 105.566406 153.851562 C 105.566406 158.320312 117.128906 157.566406 117.128906 167.386719 C 117.128906 173.253906 112.828125 176.570312 106.898438 176.570312 C 103.179688 176.570312 100.683594 175.757812 97.832031 174.128906 Z M 100.101562 168.550781 "/>
<path fill-rule="nonzero" fill="rgb(0%, 0%, 0%)" fill-opacity="1" d="M 137.078125 175.582031 C 135.449219 176.105469 133.125 176.570312 130.976562 176.570312 C 127.195312 176.570312 123.941406 175.113281 123.941406 168.550781 L 123.941406 152.042969 L 120.34375 152.042969 L 120.34375 146.066406 L 123.941406 146.066406 L 123.941406 137.867188 L 131.613281 136.820312 L 131.613281 146.066406 L 137.078125 146.066406 L 137.078125 152.042969 L 131.613281 152.042969 L 131.613281 167.210938 C 131.613281 169.308594 132.019531 170.003906 134 170.003906 C 134.636719 170.003906 135.5625 169.886719 136.613281 169.714844 Z M 137.078125 175.582031 "/>
<path fill-rule="nonzero" fill="rgb(0%, 0%, 0%)" fill-opacity="1" d="M 170.480469 155.125 C 168.675781 153.386719 167.222656 152.453125 165.828125 152.453125 C 163.386719 152.453125 161.648438 155.246094 161.648438 161.050781 C 161.648438 166.574219 163.097656 169.425781 165.597656 169.425781 C 166.9375 169.425781 168.621094 168.492188 170.480469 166.691406 Z M 164.605469 180.871094 C 169.605469 180.871094 170.539062 178.835938 170.539062 175.636719 L 170.539062 172.96875 C 167.632812 175.410156 165.476562 176.339844 163.039062 176.339844 C 157.636719 176.339844 153.917969 171.167969 153.917969 161.230469 C 153.917969 150.652344 158.449219 145.421875 164.203125 145.421875 C 166.46875 145.421875 168.332031 146.296875 171.238281 149.136719 L 171.875 146.066406 L 178.089844 146.066406 L 178.089844 174.535156 C 178.089844 184.300781 172.046875 186.683594 166.066406 186.683594 C 163.273438 186.683594 160.660156 186.5625 158.621094 186.222656 L 157.578125 180.871094 Z M 164.605469 180.871094 "/>
<path fill-rule="nonzero" fill="rgb(0%, 0%, 0%)" fill-opacity="1" d="M 200.421875 163.265625 L 198.5 163.265625 C 192.921875 163.265625 191.640625 164.601562 191.640625 166.75 C 191.640625 168.835938 192.921875 170.40625 194.78125 170.40625 C 196.523438 170.40625 198.09375 169.480469 200.421875 167.269531 Z M 201.761719 175.984375 L 201.117188 172.789062 C 197.976562 175.527344 195.769531 176.628906 192.277344 176.628906 C 187.515625 176.628906 183.910156 172.789062 183.910156 167.039062 C 183.910156 161.34375 188.503906 157.679688 198.730469 157.679688 L 200.421875 157.679688 L 200.421875 156.875 C 200.421875 153.386719 199.71875 151.472656 195.828125 151.472656 C 193.035156 151.472656 189.789062 152.335938 186.589844 153.386719 L 185.132812 148.09375 C 189.027344 146.464844 193.210938 145.421875 196.984375 145.421875 C 205.121094 145.421875 208.03125 148.09375 208.03125 155.414062 L 208.03125 175.984375 Z M 201.761719 175.984375 "/>
<path fill-rule="nonzero" fill="rgb(0%, 0%, 0%)" fill-opacity="1" d="M 215.273438 175.988281 L 215.273438 134.902344 L 222.886719 133.742188 L 222.886719 175.988281 Z M 215.273438 175.988281 "/>
<path fill-rule="nonzero" fill="rgb(0%, 0%, 0%)" fill-opacity="1" d="M 230.050781 175.988281 L 230.050781 134.902344 L 237.664062 133.742188 L 237.664062 175.988281 Z M 230.050781 175.988281 "/>
<path fill-rule="nonzero" fill="rgb(0%, 0%, 0%)" fill-opacity="1" d="M 260.210938 157.453125 C 260.210938 154.023438 259.046875 151.351562 255.847656 151.351562 C 252.59375 151.351562 251.316406 154.488281 251.261719 157.855469 L 260.210938 157.855469 Z M 267.296875 174.1875 C 263.179688 175.875 259.519531 176.570312 255.617188 176.570312 C 246.84375 176.570312 243.648438 171.632812 243.648438 161.167969 C 243.648438 150.769531 248.179688 145.421875 256.433594 145.421875 C 262.941406 145.421875 267.703125 149.664062 267.703125 158.726562 C 267.703125 160.066406 267.648438 161.925781 267.464844 163.382812 L 251.316406 163.382812 C 251.316406 168.324219 252.945312 170.351562 256.726562 170.351562 C 259.046875 170.351562 262.59375 169.828125 265.902344 168.898438 Z M 267.296875 174.1875 "/>
<path fill-rule="nonzero" fill="rgb(0%, 0%, 0%)" fill-opacity="1" d="M 289.667969 175.988281 L 289.667969 157.800781 C 289.667969 154.839844 288.734375 152.453125 286.46875 152.453125 C 285.074219 152.453125 283.390625 153.328125 281.46875 155.125 L 281.46875 175.988281 L 273.863281 175.988281 L 273.863281 146.0625 L 280.199219 146.0625 L 280.773438 149.199219 C 284.4375 146.175781 286.585938 145.421875 289.488281 145.421875 C 294.136719 145.421875 297.339844 148.792969 297.339844 155.765625 L 297.339844 175.988281 Z M 289.667969 175.988281 "/>
<path fill-rule="nonzero" fill="rgb(0%, 0%, 0%)" fill-opacity="1" d="M 141.953125 167.867188 L 149.675781 167.867188 L 149.675781 175.851562 L 141.953125 175.851562 Z M 141.953125 167.867188 "/>
<path fill-rule="nonzero" fill="rgb(87.799072%, 0%, 14.498901%)" fill-opacity="1" d="M 63.441406 124.9375 L 42.320312 124.9375 L 14.160156 167.183594 L 35.28125 167.183594 Z M 63.441406 124.9375 "/>
<path fill-rule="nonzero" fill="rgb(0%, 0%, 0%)" fill-opacity="1" d="M 98.648438 124.9375 L 77.527344 124.9375 L 49.363281 167.183594 L 70.488281 167.183594 Z M 98.648438 124.9375 "/>
</svg>
